<svg xmlns="http://www.w3.org/2000/svg" xmlns:xlink="http://www.w3.org/1999/xlink" version="1.1" x="0px" y="0px" viewBox="0 0 120 150" enable-background="new 0 0 120 120" xml:space="preserve" stroke-width="2.5"><path d="M17.434,111.5h11.074h62.985h11.074c4.926,0,8.934-4.008,8.934-8.934V22.234L98.496,8.5h-7.004H72.541h-3H28.507H17.434  c-4.926,0-8.934,4.008-8.934,8.934v85.133C8.5,107.492,12.508,111.5,17.434,111.5z M31.507,108.5V65.344h56.985V108.5H31.507z   M88.492,11.5v24.707H72.541V11.5H88.492z M69.541,11.5v24.707H31.507V11.5H69.541z M11.5,17.434c0-3.271,2.662-5.934,5.934-5.934  h11.074v27.707h62.985V11.5h5.713L108.5,23.43v79.137c0,3.271-2.662,5.934-5.934,5.934H91.492V62.344H28.507V108.5H17.434  c-3.272,0-5.934-2.662-5.934-5.934V17.434z" stroke="#000000" fill="#000000"/></svg>