<svg xmlns="http://www.w3.org/2000/svg" xmlns:xlink="http://www.w3.org/1999/xlink" xmlns:sketch="http://www.bohemiancoding.com/sketch/ns" viewBox="0 0 22 27.5" version="1.1" x="0px" y="0px"><title>editor_copy_duplicate_outline_stroke_files 2</title><description>Created with Sketch.</description><defs><path d="M4,3 L2.48484848,3 C2.48484848,3 2,3 2,3.48888889 L2,21.5105143 C2,22 2.48484848,22 2.48484848,22 L15.5151515,22 C15.5151515,22 16,22 16,21.5111111 L16,20 L15,20 L15,21 L3,21 L3,4 L4,4 L4,3 Z M5,0.488888888 C5,0 5.48484848,0 5.48484848,0 L14.6363636,0 L19,4.4 L19,18.5111111 C19,19 18.5151515,19 18.5151515,19 L5.48484848,19 C5.48484848,19 5,19 5,18.5105143 L5,0.488888888 Z M6,18 L6,1 L14,1 L14,4 C14,5 15,5 15,5 L18,5 L18,18 L6,18 Z M15,1.66131592 L15,4 L17.3460083,4 L15,1.66131592 Z" id="a"/></defs><g stroke="none" stroke-width="1" fill="none" fill-rule="evenodd" sketch:type="MSPage"><g><use fill="#000000" fill-rule="evenodd" sketch:type="MSShapeGroup" xlink:href="#a"/><use fill="none" xlink:href="#a"/></g></g></svg>